<?xml version="1.0" standalone="no"?>
<!DOCTYPE svg PUBLIC "-//W3C//DTD SVG 20010904//EN"
 "http://www.w3.org/TR/2001/REC-SVG-20010904/DTD/svg10.dtd">
<svg version="1.0" xmlns="http://www.w3.org/2000/svg"
 width="100.000000pt" height="55.000000pt" viewBox="0 0 100.000000 55.000000"
 preserveAspectRatio="xMidYMid meet">

<g transform="translate(0.000000,55.000000) scale(0.100000,-0.100000)"
fill="#000000" stroke="none">
<path d="M454 398 c-34 -16 -44 -51 -44 -148 0 -77 3 -93 20 -110 31 -31 76
-26 95 10 16 31 7 41 -15 15 -15 -18 -42 -19 -58 -3 -14 14 -16 155 -2 192 8
22 12 24 39 16 35 -10 50 3 31 25 -14 17 -36 18 -66 3z"/>
<path d="M572 403 c-20 -8 -3 -23 28 -23 l29 0 -6 -137 c-5 -132 -5 -137 12
-121 15 14 19 40 24 135 6 109 7 118 26 116 23 -2 55 14 55 27 0 10 -144 13
-168 3z"/>
<path d="M40 385 c-11 -13 -7 -15 27 -15 l39 0 -3 -112 c-4 -122 3 -152 32
-128 15 12 17 30 13 127 l-4 113 37 0 c20 0 42 7 49 15 11 13 1 15 -83 15 -72
0 -98 -4 -107 -15z"/>
<path d="M264 388 c-4 -6 -9 -69 -12 -138 -4 -127 -4 -127 19 -133 36 -10 117
-8 124 2 8 14 -6 19 -63 23 -39 2 -51 6 -47 16 3 8 5 27 5 43 0 24 4 29 24 29
13 0 30 7 37 16 12 15 10 16 -24 12 l-37 -4 0 57 0 58 47 3 c26 2 48 9 51 16
5 16 -114 17 -124 0z"/>
</g>
</svg>
