<?xml version="1.0" standalone="no"?>
<!DOCTYPE svg PUBLIC "-//W3C//DTD SVG 20010904//EN"
 "http://www.w3.org/TR/2001/REC-SVG-20010904/DTD/svg10.dtd">
<svg version="1.0" xmlns="http://www.w3.org/2000/svg"
 width="100.000000pt" height="100.000000pt" viewBox="0 0 100.000000 100.000000"
 preserveAspectRatio="xMidYMid meet">

<g transform="translate(0.000000,100.000000) scale(0.100000,-0.100000)"
fill="#000000" stroke="none">
<path d="M733 878 c-71 -75 -125 -147 -117 -159 3 -5 19 8 37 29 63 73 69 76
88 40 21 -39 132 -188 141 -188 4 0 11 12 14 26 5 19 0 32 -18 52 -14 15 -36
40 -49 56 -13 15 -36 42 -51 60 -35 39 -35 49 1 78 33 26 50 68 28 68 -7 0
-41 -28 -74 -62z"/>
<path d="M530 651 c-23 -44 -2 -140 42 -191 68 -80 169 -79 197 2 13 37 15
138 2 138 -13 0 -21 -27 -21 -75 0 -55 -19 -75 -72 -75 -32 0 -46 6 -70 32
-55 59 -81 135 -53 158 19 16 19 30 0 30 -8 0 -19 -9 -25 -19z"/>
<path d="M366 467 c-20 -29 -36 -58 -36 -66 0 -29 176 -235 192 -225 16 10 88
126 88 141 0 27 -22 12 -52 -37 -34 -54 -36 -54 -85 0 -29 32 -29 39 5 80 47
57 65 100 42 100 -5 0 -28 -27 -51 -61 l-41 -61 -34 33 c-19 18 -34 36 -34 40
0 3 14 23 30 44 29 37 39 65 21 65 -5 0 -25 -24 -45 -53z"/>
<path d="M183 294 c-43 -47 -86 -99 -96 -115 -34 -52 -8 -48 46 8 l54 56 49
-54 c64 -70 136 -139 145 -139 4 0 10 12 14 27 6 24 -3 35 -87 114 l-93 88 38
36 c20 21 37 44 37 51 0 31 -32 9 -107 -72z"/>
</g>
</svg>
